<?xml version="1.0" encoding="UTF-8"?>
<svg id="Layer_1" xmlns="http://www.w3.org/2000/svg" viewBox="0 0 180 180">
    <defs>
        <style>
            .cls-1{
                fill:#036;
            }
            .cls-1,.cls-2,.cls-3,.cls-4,.cls-5{
                stroke-width:0px;
            }
            .cls-1,.cls-5{
                fill-rule:evenodd;
            }.cls-3{
                fill:#fc0;
            }
            .cls-4{
                fill:#fff;
            }
        </style>
    </defs>
    <path class="cls-2" d="M1.22,1.2v177.6h177.6V1.2H1.22Z"/>
    <path class="cls-1" d="M1.22,178.8V1.2h177.6v177.6s-177.6,0-177.6,0h0Z"/>
    <path class="cls-5" d="M0,180V0h180v180s-180,0-180,0ZM177.52,177.52V2.48S2.48,2.48,2.48,2.48v175.04h175.04Z"/>
    <path class="cls-5" d="M164.86,50.46c0-2.38,1.92-4.31,4.3-4.31,0,0,0,0,.01,0,2.38,0,4.31,1.92,4.32,4.3h0c0,2.39-1.92,4.32-4.3,4.33,0,0-.01,0-.02,0-2.38,0-4.31-1.92-4.31-4.29,0,0,0-.01,0-.02ZM169.17,47.01c1.92,0,3.48,1.54,3.47,3.46,0,1.92-1.56,3.47-3.47,3.47-1.91,0-3.46-1.55-3.45-3.46,0,0,0,0,0,0,0-1.9,1.53-3.45,3.43-3.46,0,0,.01,0,.02,0ZM170.85,51.82l.51.9h-1.12s-.36-.72-.36-.72c-.16-.32-.36-.61-.61-.87-.18-.18-.34-.23-.73-.23h-.16s0,1.83,0,1.83h-.92v-4.47h2.23c.96,0,1.41.53,1.41,1.24,0,.67-.45,1.16-1.21,1.25v.03c.38.13.51.26.96,1.04h0ZM168.38,48.95v1.23h.93c.62,0,.83-.3.82-.62,0-.39-.31-.61-.92-.61h-.83Z"/>
    <path class="cls-3" d="M70.29,105.18c0,16.94-11.79,24.74-26.83,24.74H11.27l11.7-78.01h29.59c13.21,0,20.31,6.58,20.31,18.28,0,9.36-4.1,15.94-10.45,19.5,5.02,2.9,7.86,8.25,7.86,15.49Z"/>
    <path class="cls-3" d="M112.94,112.19l5.01,7.25-10.88,13.35-5.18-7.48c-5.96,4.95-12.78,7.71-20.12,7.71-12.87,0-22.37-7.94-22.37-20.95,0-11.74,6.39-19.57,15.98-25.67-2.25-4.03-3.37-8.29-3.37-12.89,0-15.08,10.02-23.83,21.68-23.83,10.1,0,17.62,6.1,17.62,17.27,0,10.25-5.61,16.92-14.25,22.45l7.17,10.36c1.73-3.45,3.28-7.25,4.49-11.63l12.44,5.3c-2.16,7.02-4.92,13.35-8.2,18.76Z"/>
    <path class="cls-3" d="M172.07,77.24c0,19.73-11.29,32.54-28.92,32.54h-11.7l-3.01,20.39h-16.55l11.7-78.01h24.74c15.21,0,23.74,9.25,23.74,25.07Z"/>
    <path class="cls-2" d="M68.12,104.71c0,15.82-11.01,23.11-25.07,23.11H12.99l10.93-72.88h27.65c12.34,0,18.98,6.14,18.98,17.07,0,8.75-3.83,14.89-9.76,18.22,4.69,2.71,7.34,7.7,7.34,14.47Z"/>
    <path class="cls-2" d="M111.98,110.85l4.68,6.78-10.17,12.48-4.84-6.99c-5.57,4.63-11.94,7.21-18.8,7.21-12.02,0-20.89-7.42-20.89-19.57,0-10.97,5.97-18.28,14.93-23.98-2.1-3.76-3.15-7.74-3.15-12.05,0-14.09,9.36-22.26,20.25-22.26,9.44,0,16.46,5.7,16.46,16.13,0,9.57-5.24,15.81-13.31,20.97l6.7,9.68c1.61-3.23,3.07-6.78,4.2-10.86l11.62,4.95c-2.02,6.56-4.6,12.48-7.66,17.53Z"/>
    <path class="cls-2" d="M169.58,78.37c0,18.43-10.54,30.4-27.02,30.4h-10.93l-2.81,19.05h-15.46l10.93-72.88h23.12c14.21,0,22.18,8.64,22.18,23.42Z"/>
    <path class="cls-4" d="M65.28,102.99c0,14.03-9.77,20.5-22.23,20.5h-26.66l9.7-64.63h24.52c10.94,0,16.83,5.45,16.83,15.14,0,7.76-3.39,13.2-8.66,16.16,4.16,2.4,6.51,6.83,6.51,12.83ZM51.64,102.62c0-3.88-2.35-5.45-5.68-5.45h-12.12l-1.94,13.11h11.91c4.78,0,7.83-2.49,7.83-7.66ZM37.65,72.05l-1.87,12.46h9.83c4.85,0,7.48-2.58,7.48-7.39,0-3.51-2.15-5.08-5.75-5.08h-9.7Z"/>
    <path class="cls-4" d="M108.98,108.06l4.02,5.82-8.73,10.71-4.16-6c-4.78,3.97-10.25,6.19-16.14,6.19-10.32,0-17.94-6.37-17.94-16.8,0-9.42,5.12-15.7,12.81-20.59-1.8-3.23-2.7-6.65-2.7-10.34,0-12.1,8.03-19.11,17.38-19.11,8.1,0,14.13,4.89,14.13,13.85,0,8.22-4.5,13.57-11.43,18l5.75,8.31c1.39-2.77,2.63-5.82,3.6-9.33l9.97,4.25c-1.73,5.63-3.95,10.71-6.58,15.05ZM93.4,108.8l-8.66-12.56c-3.46,2.4-5.54,5.08-5.54,8.77s2.22,6.37,6.86,6.37c2.42,0,4.92-.92,7.34-2.58ZM88.2,75.29c0,1.75.55,3.32,2.15,5.91,5.06-3.05,6.23-5.35,6.23-7.94,0-2.22-1.38-3.79-3.53-3.79-2.84,0-4.85,2.31-4.85,5.82Z"/>
    <path class="cls-4" d="M164.66,79.63c0,16.34-9.35,26.96-23.96,26.96h-9.7l-2.49,16.9h-13.71l9.7-64.63h20.5c12.61,0,19.67,7.66,19.67,20.77ZM150.81,81.2c0-5.45-2.84-7.94-7.62-7.94h-7.2l-2.84,18.93h8.17c6.03,0,9.49-3.88,9.49-10.99Z"/>
</svg>